<?xml version="1.0" encoding="UTF-8"?>
<svg version="1.1" xmlns="http://www.w3.org/2000/svg" width="100" height="100">
<path d="M0 0 C33 0 66 0 100 0 C100 33 100 66 100 100 C67 100 34 100 0 100 C0 67 0 34 0 0 Z " fill="#FBFDFD" transform="translate(0,0)"/>
<path d="M0 0 C1.33321289 0.61198242 1.33321289 0.61198242 2.69335938 1.23632812 C6.42929578 2.95693595 10.13622887 4.7179387 13.8125 6.5625 C13.91412708 13.00360602 13.98406052 19.4445044 14.03222656 25.88623047 C14.05231107 28.07641324 14.07958417 30.26654259 14.11425781 32.45654297 C14.16291409 35.60918376 14.18550078 38.76111404 14.203125 41.9140625 C14.22377014 42.88928864 14.24441528 43.86451477 14.26568604 44.86929321 C14.26757946 50.63810214 13.72414683 54.01454914 9.8125 58.5625 C5.56194484 62.57791807 1.07645251 65.30970848 -4.125 67.9375 C-4.80240234 68.30488281 -5.47980469 68.67226562 -6.17773438 69.05078125 C-10.91308246 71.45704634 -13.89068762 72.00062895 -19.1875 70.5625 C-21.94661337 69.53815433 -24.56177137 68.32709887 -27.1875 67 C-27.89011963 66.6479248 -28.59273926 66.29584961 -29.31665039 65.93310547 C-35.42319803 62.72138187 -40.05714788 58.82320424 -43.1875 52.5625 C-43.27713847 51.08149189 -43.30507925 49.59650576 -43.30102539 48.11279297 C-43.30094986 47.19198944 -43.30087433 46.27118591 -43.30079651 45.32247925 C-43.29563522 44.32660797 -43.29047394 43.33073669 -43.28515625 42.3046875 C-43.2837413 41.28649933 -43.28232635 40.26831116 -43.28086853 39.2192688 C-43.275259 35.95864965 -43.26270488 32.69809849 -43.25 29.4375 C-43.24498623 27.23046974 -43.24042311 25.02343841 -43.23632812 22.81640625 C-43.22528648 17.39841419 -43.20853905 11.98046195 -43.1875 6.5625 C-41.66769531 5.85673828 -41.66769531 5.85673828 -40.1171875 5.13671875 C-38.76560425 4.5078571 -37.41404291 3.87894834 -36.0625 3.25 C-35.39734375 2.94126953 -34.7321875 2.63253906 -34.046875 2.31445312 C-29.23291227 0.07265676 -24.47558048 -2.2641254 -19.75 -4.6875 C-12.72763501 -6.74282634 -6.23339019 -2.92662478 0 0 Z " fill="#08A6D9" transform="translate(67.1875,16.4375)"/>
<path d="M0 0 C0 5.94 0 11.88 0 18 C-2.26875 19.155 -4.5375 20.31 -6.875 21.5 C-7.58769043 21.86544922 -8.30038086 22.23089844 -9.03466797 22.60742188 C-13.77777778 25 -13.77777778 25 -16 25 C-15.68429746 37.72281234 -14.75554351 47.5388515 -5.78125 57.30859375 C-4.04689372 59.0871639 -4.04689372 59.0871639 -1.796875 60.2734375 C0 62 0 62 0.390625 65.35546875 C0.32101563 67.25232422 0.32101563 67.25232422 0.25 69.1875 C0.21390625 70.45980469 0.1778125 71.73210937 0.140625 73.04296875 C0.09421875 74.01878906 0.0478125 74.99460937 0 76 C-8.97652663 74.92063074 -18.29983016 70.52348148 -24.3125 63.6875 C-27.06073502 60.16394427 -28.12578171 58.03610632 -28.11352539 53.55029297 C-28.11344986 52.62948944 -28.11337433 51.70868591 -28.11329651 50.75997925 C-28.10813522 49.76410797 -28.10297394 48.76823669 -28.09765625 47.7421875 C-28.0962413 46.72399933 -28.09482635 45.70581116 -28.09336853 44.6567688 C-28.087759 41.39614965 -28.07520488 38.13559849 -28.0625 34.875 C-28.05748623 32.66796974 -28.05292311 30.46093841 -28.04882812 28.25390625 C-28.03778648 22.83591419 -28.02103905 17.41796195 -28 12 C-25.6315308 10.89448756 -23.26303769 9.78902639 -20.89453125 8.68359375 C-20.23199341 8.3743396 -19.56945557 8.06508545 -18.88684082 7.74645996 C-2.28873891 0 -2.28873891 0 0 0 Z " fill="#2F445A" transform="translate(52,11)"/>
<path d="M0 0 C0.61746094 0.28617188 1.23492187 0.57234375 1.87109375 0.8671875 C2.51175781 1.15335938 3.15242188 1.43953125 3.8125 1.734375 C5.37816538 2.4354192 6.93778531 3.14993868 8.49609375 3.8671875 C9.07858664 15.85683285 8.54762203 25.28049432 0.68359375 34.9921875 C-1.92159696 37.65997984 -3.52190098 38.87489953 -7.00390625 40.3671875 C-12.31437652 39.60854889 -15.07832403 36.86729085 -18.50390625 32.8671875 C-23.33118984 25.75141391 -24.66458988 20.16671592 -24.56640625 11.6171875 C-24.56189453 10.87210938 -24.55738281 10.12703125 -24.55273438 9.359375 C-24.54099871 7.5286111 -24.52306475 5.69788877 -24.50390625 3.8671875 C-22.46929856 2.85290236 -20.42586019 1.85631961 -18.37890625 0.8671875 C-16.67347656 0.031875 -16.67347656 0.031875 -14.93359375 -0.8203125 C-9.20860212 -3.01119768 -5.58346262 -2.46847821 0 0 Z " fill="#F6FAF9" transform="translate(60.50390625,32.1328125)"/>
<path d="M0 0 C2.5625 0.1875 2.5625 0.1875 4.5625 2.1875 C4.00694444 6.74305556 4.00694444 6.74305556 2.5625 8.1875 C0.125 8.375 0.125 8.375 -2.4375 8.1875 C-3.0975 7.5275 -3.7575 6.8675 -4.4375 6.1875 C-3.71780303 0.28598485 -3.71780303 0.28598485 0 0 Z " fill="#26ADD5" transform="translate(52.4375,44.8125)"/>
<path d="M0 0 C0.33 0.66 0.66 1.32 1 2 C-0.32 2.33 -1.64 2.66 -3 3 C-3 6.96 -3 10.92 -3 15 C-1.68 15.33 -0.36 15.66 1 16 C-2.22791555 18.1519437 -3.28400809 18.20086443 -7 18 C-6.34 17.67 -5.68 17.34 -5 17 C-5.33 12.05 -5.66 7.1 -6 2 C-4.02 1.34 -2.04 0.68 0 0 Z " fill="#2A9BBD" transform="translate(57,70)"/>
<path d="M0 0 C0.33 1.32 0.66 2.64 1 4 C0.34 4 -0.32 4 -1 4 C-1.2475 4.804375 -1.495 5.60875 -1.75 6.4375 C-2.1625 7.283125 -2.575 8.12875 -3 9 C-5.078125 9.66015625 -5.078125 9.66015625 -7 10 C-6.57847656 9.44570312 -6.15695313 8.89140625 -5.72265625 8.3203125 C-5.17480469 7.59585938 -4.62695312 6.87140625 -4.0625 6.125 C-3.51722656 5.40570313 -2.97195312 4.68640625 -2.41015625 3.9453125 C-0.96035376 2.05642921 -0.96035376 2.05642921 0 0 Z " fill="#2AADD1" transform="translate(65,60)"/>
</svg>
